<?xml version="1.0" encoding="UTF-8" standalone="no"?>
<!-- Created with Inkscape (http://www.inkscape.org/) -->

<svg
   width="50mm"
   height="49.936096mm"
   viewBox="0 0 50 49.936096"
   version="1.1"
   id="svg1"
   inkscape:version="1.3 (0e150ed6c4, 2023-07-21)"
   sodipodi:docname="clock-svg-finished2.svg"
   xmlns:inkscape="http://www.inkscape.org/namespaces/inkscape"
   xmlns:sodipodi="http://sodipodi.sourceforge.net/DTD/sodipodi-0.dtd"
   xmlns="http://www.w3.org/2000/svg"
   xmlns:svg="http://www.w3.org/2000/svg">
  <sodipodi:namedview
     id="namedview1"
     pagecolor="#ffffff"
     bordercolor="#ffffff"
     borderopacity="0.25"
     inkscape:showpageshadow="2"
     inkscape:pageopacity="0.0"
     inkscape:pagecheckerboard="true"
     inkscape:deskcolor="#d1d1d1"
     inkscape:document-units="mm"
     showguides="false"
     inkscape:zoom="1.0381217"
     inkscape:cx="381.45818"
     inkscape:cy="198.43532"
     inkscape:window-width="1920"
     inkscape:window-height="1028"
     inkscape:window-x="0"
     inkscape:window-y="0"
     inkscape:window-maximized="1"
     inkscape:current-layer="layer1" />
  <defs
     id="defs1">
    <inkscape:path-effect
       effect="fillet_chamfer"
       id="path-effect3"
       is_visible="true"
       lpeversion="1"
       nodesatellites_param="F,0,0,1,1,1.0583333,0,1 @ F,0,0,1,1,1.0583333,0,1 @ F,0,0,1,1,1.0583333,0,1 @ F,0,0,1,1,1.0583333,0,1 @ F,0,0,1,1,1.0583333,0,1 @ F,0,0,1,1,1.0583333,0,1 @ F,0,0,1,1,1.0583333,0,1 @ F,0,0,1,1,1.0583333,0,1 @ F,0,0,1,1,1.0583333,0,1 @ F,0,0,1,1,1.0583333,0,1 @ F,0,0,1,1,1.0583333,0,1 @ F,0,0,1,1,1.0583333,0,1 @ F,0,0,1,1,1.0583333,0,1 @ F,0,0,1,1,1.0583333,0,1 @ F,0,0,1,1,1.0583333,0,1 @ F,0,0,1,1,1.0583333,0,1 @ F,0,0,1,1,1.0583333,0,1 @ F,0,0,1,1,1.0583333,0,1 @ F,0,0,1,1,1.0583333,0,1 @ F,0,0,1,1,1.0583333,0,1 @ F,0,0,1,1,1.0583333,0,1 @ F,0,0,1,1,1.0583333,0,1 @ F,0,0,1,1,1.0583333,0,1 @ F,0,0,1,1,1.0583333,0,1 @ F,0,0,1,1,1.0583333,0,1 @ F,0,0,1,1,1.0583333,0,1 @ F,0,0,1,1,1.0583333,0,1 @ F,0,0,1,1,1.0583333,0,1 @ F,0,0,1,1,1.0583333,0,1 @ F,0,0,1,1,1.0583333,0,1 @ F,0,0,1,1,1.0583333,0,1"
       radius="4"
       unit="px"
       method="auto"
       mode="F"
       chamfer_steps="1"
       flexible="false"
       use_knot_distance="true"
       apply_no_radius="true"
       apply_with_radius="true"
       only_selected="false"
       hide_knots="true" />
    <inkscape:path-effect
       effect="fillet_chamfer"
       id="path-effect2"
       is_visible="true"
       lpeversion="1"
       nodesatellites_param="F,0,0,1,1,2.1166667,0,1 @ F,0,0,1,1,2.1166667,0,1 @ F,0,0,1,1,2.1166667,0,1 @ F,0,0,1,1,2.1166667,0,1 @ F,0,0,1,1,2.1166667,0,1 @ F,0,0,1,1,2.1166667,0,1 @ F,0,0,1,1,2.1166667,0,1 @ F,0,0,1,1,2.1166667,0,1 @ F,0,0,1,1,2.1166667,0,1 @ F,0,0,1,1,2.1166667,0,1 @ F,0,0,1,1,2.1166667,0,1 @ F,0,0,1,1,2.1166667,0,1 @ F,0,0,1,1,2.1166667,0,1 @ F,0,0,1,1,2.1166667,0,1 @ F,0,0,1,1,2.1166667,0,1 @ F,0,0,1,1,2.1166667,0,1 @ F,0,0,1,1,2.1166667,0,1 @ F,0,0,1,1,2.1166667,0,1 @ F,0,0,1,1,2.1166667,0,1 @ F,0,0,1,1,2.1166667,0,1 @ F,0,0,1,1,2.1166667,0,1 @ F,0,0,1,1,2.1166667,0,1 @ F,0,0,1,1,2.1166667,0,1 @ F,0,0,1,1,2.1166667,0,1 @ F,0,0,1,1,2.1166667,0,1 @ F,0,0,1,1,2.1166667,0,1 @ F,0,0,1,1,2.1166667,0,1 @ F,0,0,1,1,2.1166667,0,1 @ F,0,0,1,1,2.1166667,0,1 @ F,0,0,1,1,2.1166667,0,1 @ F,0,0,1,1,2.1166667,0,1 @ F,0,0,1,1,2.1166667,0,1 @ F,0,0,1,1,2.1166667,0,1 @ F,0,0,1,1,2.1166667,0,1 @ F,0,0,1,1,2.1166667,0,1 @ F,0,0,1,1,2.1166667,0,1"
       radius="9"
       unit="px"
       method="auto"
       mode="F"
       chamfer_steps="1"
       flexible="false"
       use_knot_distance="true"
       apply_no_radius="true"
       apply_with_radius="true"
       only_selected="false"
       hide_knots="true" />
  </defs>
  <g
     inkscape:label="Layer 1"
     inkscape:groupmode="layer"
     id="layer1"
     transform="translate(-10.068394,-53.691676)">
    <path
       id="path2"
       style="fill:#ffffff;stroke:#ffffff;stroke-width:0.263606"
       d="m 34.487588,53.365523 c -1.308749,0.374182 -2.500444,1.101666 -3.646673,1.852868 -0.48861,0.320219 -1.352262,0.518827 -1.93098,0.436839 -1.499555,-0.212444 -3.056438,-0.408136 -4.511557,-0.05055 -0.566072,0.139109 -1.430747,0.551136 -1.889149,0.912086 -1.172013,0.922851 -1.933886,2.299356 -2.623911,3.643288 -0.266639,0.519321 -0.794049,1.340506 -1.334076,1.527862 -0.03499,0.01214 -0.0703,0.02396 -0.105807,0.03557 -0.55375,0.18115 -1.420245,0.567112 -1.942617,0.829165 -1.275705,0.639968 -2.503928,1.491763 -3.157586,2.736082 -0.271073,0.516022 -0.486028,1.449569 -0.561221,2.028913 -0.136859,1.05446 -0.116686,2.126995 -0.05808,3.192186 0.03211,0.583519 -0.224132,1.430172 -0.584712,1.890194 -0.933715,1.191216 -1.879114,2.442495 -2.2966031,3.88079 -0.1624992,0.559827 -0.2389102,1.514601 -0.1560388,2.092134 0.2120286,1.477634 1.0241289,2.825631 1.8422359,4.096092 0.31605,0.490804 0.763875,1.35842 0.655939,1.919618 -0.0071,0.03691 -0.01465,0.07393 -0.02248,0.11103 -0.120326,0.570033 -0.218505,1.513521 -0.253044,2.09692 -0.08439,1.425414 0.03681,2.916178 0.7878,4.103905 0.311499,0.492655 1.012553,1.145629 1.476347,1.500854 0.84277,0.645488 1.77975,1.163402 2.729895,1.64437 0.521403,0.263937 1.127045,0.908909 1.345331,1.451117 0.565659,1.405064 1.175258,2.850401 2.212257,3.932365 0.403353,0.420844 1.19128,0.965603 1.732713,1.182953 1.384168,0.55566 2.958012,0.52375 4.466976,0.45113 0.583067,-0.0281 1.558833,0.0173 1.991165,0.39098 0.02799,0.0242 0.05586,0.0488 0.08366,0.0737 0.433893,0.38883 1.200793,0.94701 1.688398,1.26916 1.19093,0.78684 2.541676,1.42626 3.945979,1.37022 0.582419,-0.0232 1.497982,-0.30514 2.037247,-0.52986 0.980555,-0.40861 1.899037,-0.95984 2.790515,-1.54355 0.488925,-0.32013 1.349146,-0.52225 1.927776,-0.43964 1.498451,0.21395 3.054233,0.40526 4.508804,0.0491 0.56623,-0.13865 1.430881,-0.55036 1.889261,-0.91137 1.204249,-0.948448 1.976033,-2.370453 2.680686,-3.752536 0.26514,-0.520035 0.852304,-1.253089 1.3947,-1.460558 0.139657,-0.05342 0.282833,-0.103311 0.426054,-0.153797 0.549505,-0.193701 1.405458,-0.60438 1.91954,-0.882157 1.155652,-0.624441 2.229272,-1.471643 2.800918,-2.632213 0.25755,-0.522885 0.451354,-1.460938 0.51966,-2.041159 0.119639,-1.016275 0.100016,-2.047197 0.04428,-3.072097 -0.03173,-0.583553 0.224151,-1.430527 0.584472,-1.890751 0.932152,-1.190604 1.876066,-2.439199 2.295359,-3.875806 0.163325,-0.559594 0.240228,-1.514255 0.157123,-2.091763 -0.212859,-1.479208 -1.024948,-2.829029 -1.844022,-4.100796 -0.316089,-0.490788 -0.761292,-1.358502 -0.654389,-1.920259 0.007,-0.03666 0.01439,-0.07342 0.02208,-0.110264 0.119069,-0.570369 0.218535,-1.513682 0.253419,-2.097056 0.08522,-1.425084 -0.03764,-2.914742 -0.787961,-4.102916 -0.311228,-0.492842 -1.012284,-1.145709 -1.476256,-1.500715 -0.843412,-0.645334 -1.779845,-1.16406 -2.730538,-1.644477 -0.521589,-0.263577 -1.127169,-0.907856 -1.345035,-1.450233 -0.5645,-1.405315 -1.173995,-2.850881 -2.210587,-3.932207 -0.403395,-0.420803 -1.191548,-0.965219 -1.732958,-1.182643 -1.384389,-0.555957 -2.957794,-0.525132 -4.46702,-0.452927 -0.583079,0.0279 -1.558618,-0.01765 -1.991634,-0.39066 -0.02768,-0.02385 -0.05524,-0.04811 -0.08273,-0.07266 -0.434616,-0.388088 -1.206249,-0.939462 -1.693506,-1.26223 -0.933301,-0.618236 -1.939002,-1.157337 -3.029469,-1.326287 -0.57589,-0.08922 -1.054403,-0.04051 -1.054402,-0.04051 z"
       inkscape:path-effect="#path-effect3"
       inkscape:original-d="m 35.523147,53.152368 c -2.083372,0.258368 -3.855144,1.524468 -5.564994,2.648785 -2.149082,-0.279785 -4.502548,-0.795945 -6.556849,0.149704 -2.031065,1.006142 -3.005592,3.237413 -3.99761,5.150111 -0.371379,0.637234 -1.328527,0.617467 -1.940506,1.007348 -1.894418,0.815425 -3.978371,2.00348 -4.487352,4.16908 -0.421972,1.728552 -0.301399,3.530317 -0.183257,5.288494 -1.319089,1.718151 -2.9377295,3.501292 -3.1468999,5.75151 -0.1471651,2.264333 1.3005499,4.222502 2.4581679,6.03983 0.36833,0.639872 -0.130064,1.459864 -0.09707,2.185522 -0.240552,2.048603 -0.259005,4.450082 1.364506,5.971351 1.283277,1.231072 2.901619,2.025957 4.481916,2.80188 0.83132,2.002122 1.562668,4.295988 3.407534,5.60422 1.883859,1.263517 4.305754,0.982117 6.457542,0.892017 0.738508,-10e-4 1.199857,0.83925 1.84354,1.17397 1.651601,1.23604 3.720419,2.44969 5.850791,1.80654 1.705663,-0.50231 3.207479,-1.50005 4.666787,-2.48656 2.147957,0.28706 4.500148,0.79207 6.554435,-0.14729 2.068465,-1.03009 3.042481,-3.313327 4.052464,-5.260888 0.589392,-0.556138 1.586219,-0.650654 2.308031,-1.093393 1.799154,-0.78484 3.674316,-2.038822 4.095455,-4.092068 0.384433,-1.694832 0.270639,-3.451703 0.155188,-5.1711 1.317202,-1.719268 2.932792,-3.497478 3.1469,-5.746681 0.144671,-2.265555 -1.301437,-4.226106 -2.461017,-6.044369 -0.362686,-0.6406 0.128775,-1.460718 0.09769,-2.185791 0.244099,-2.048945 0.257853,-4.447726 -1.362645,-5.970994 -1.285922,-1.229047 -2.901379,-2.026892 -4.483963,-2.799844 -0.828893,-2.002681 -1.560711,-4.297605 -3.405122,-5.60422 -1.884622,-1.263049 -4.305051,-0.983994 -6.457661,-0.893893 -0.737688,5.7e-5 -1.20067,-0.836373 -1.843421,-1.172091 -1.450465,-1.043372 -3.083393,-2.12245 -4.952582,-1.97118 z m -0.03861,17.52979 c -0.33627,0.05233 -0.270397,-0.195772 0,0 z m -4.006025,0.823368 c -0.325932,0.271728 -0.297904,-0.05819 0,0 z m 7.811748,0.325967 c 0.349035,0.412811 -0.468224,-0.210339 0,0 z m -10.920036,2.489424 c -0.469168,0.390177 0.296729,-0.430425 0,0 z m 13.704946,0.548107 c 0.07167,0.416741 -0.279769,-0.312168 0,0 z m -14.930886,3.344183 c -0.221389,0.561153 0.04987,-0.519377 0,0 z m 15.82621,0.680908 c -0.15165,0.419506 -0.09129,-0.453922 0,0 z m -14.94054,3.303134 c 0.09347,0.598866 -0.21704,-0.475238 0,0 z m 13.70736,0.630203 c -0.325762,0.272363 0.129351,-0.403178 0,0 z m -10.95141,2.378354 c 0.323447,0.305747 -0.369076,-0.192002 0,0 z m 7.913105,0.410476 c -0.416609,0.0707 0.317313,-0.284148 0,0 z m -4.022917,0.816125 c 0.560851,0.22151 -0.519096,-0.04989 0,0 z"
       transform="matrix(-0.97835213,-0.22864082,0.22818364,-0.9763944,51.403689,163.3658)" />
  </g>
</svg>
